<svg xmlns="http://www.w3.org/2000/svg" width="106.25" height="140"><path fill="#fa3106" d="M2.727 39.537c-.471-21.981 100.88-25.089 100.88-.42L92.91 117.56c-7.605 26.86-72.064 27.007-79.07.21z"/><g fill="#fff"><path d="M8.809 51.911l9.018 66.639c3.472 4.515 8.498 7.384 9.648 8.022l-6.921-68.576c-3.498-1.41-9.881-4.579-11.745-6.083zM28.629 59.776l5.453 68.898c4.926 2.652 11.04 3.391 15.73 3.566l-1.258-70.366c-3.414-.024-13.82-.642-19.925-2.098zM97.632 52.121l-9.019 66.643c-3.472 4.515-8.498 7.384-9.647 8.022l6.92-68.583c3.5-1.41 9.882-4.579 11.746-6.082zM77.812 59.986l-5.453 68.898c-4.926 2.652-11.04 3.391-15.73 3.566l1.258-70.366c3.414-.024 13.82-.642 19.925-2.098z"/></g><g fill="#ffd600"><circle cx="13.213" cy="31.252" r="6.816"/><circle cx="22.022" cy="27.687" r="6.607"/><circle cx="30.359" cy="19.769" r="5.925"/><circle cx="34.973" cy="15.155" r="6.03"/><circle cx="45.093" cy="17.095" r="4.929"/><circle cx="51.123" cy="9.597" r="6.24"/><circle cx="61.19" cy="9.387" r="6.554"/><circle cx="67.954" cy="13.635" r="4.929"/><circle cx="76.081" cy="17.672" r="5.925"/><circle cx="78.913" cy="22.706" r="4.352"/><circle cx="83.475" cy="26.324" r="5.243"/><circle cx="88.194" cy="34.398" r="5.768"/><path d="M87.355 35.447c5.79 2.799 1.352-2.213 10.696 2.097-9.574 15.338-74.774 16.892-90.291.525l-.21-3.985L38.59 16.99l22.863-6.606 15.52 9.962z"/></g></svg>